<?xml version="1.0" encoding="utf-8"?>
<!-- Generator: Adobe Illustrator 25.2.3, SVG Export Plug-In . SVG Version: 6.00 Build 0)  -->
<svg version="1.1"
	 id="svg2" sodipodi:docname="logo Metaphysika (2).eps" xmlns:cc="http://creativecommons.org/ns#" xmlns:dc="http://purl.org/dc/elements/1.1/" xmlns:inkscape="http://www.inkscape.org/namespaces/inkscape" xmlns:rdf="http://www.w3.org/1999/02/22-rdf-syntax-ns#" xmlns:sodipodi="http://sodipodi.sourceforge.net/DTD/sodipodi-0.dtd" xmlns:svg="http://www.w3.org/2000/svg"
	 xmlns="http://www.w3.org/2000/svg" xmlns:xlink="http://www.w3.org/1999/xlink" x="0px" y="0px" viewBox="0 0 433.3 66.7"
	 style="enable-background:new 0 0 433.3 66.7;" xml:space="preserve">
<style type="text/css">
	.st0{fill:#231F20;}
	.st1{fill:none;stroke:#231F20;stroke-width:0.288;stroke-miterlimit:3.0567;}
	.st2{fill-rule:evenodd;clip-rule:evenodd;}
	.st3{fill-rule:evenodd;clip-rule:evenodd;fill:#231F20;}
</style>
<sodipodi:namedview  bordercolor="#666666" borderopacity="1" gridtolerance="10" guidetolerance="10" id="namedview4" inkscape:pageopacity="0" inkscape:pageshadow="2" inkscape:window-height="480" inkscape:window-width="640" objecttolerance="10" pagecolor="#ffffff">
	</sodipodi:namedview>
<g id="g10" transform="matrix(1.3333333,0,0,-1.3333333,0,66.666667)" inkscape:groupmode="layer" inkscape:label="ink_ext_XXXXXX">
	<g id="g12" transform="scale(0.1)">
		<path id="path14" class="st0" d="M48.8,350.2H133L242.9,78.4l62.9,149.1c23.8,56.3,39.4,97.1,47,122.6h91.6v-12.1
			c-14.9-0.4-25.2-2.8-31.1-7.5c-5.9-4.6-8.9-13.2-8.9-25.6c0-1.8,0.1-3.7,0.3-5.9l19.7-205.1c2.4-25.3,6.4-41.6,11.9-48.8
			c5.6-7.2,16.8-11.1,33.8-11.6V21.4H343.7v12.1c12.9,0.4,21.9,2.9,27.3,7.7c5.3,4.8,7.9,14.2,7.9,28.1c0,2.8-0.1,5.7-0.4,8.8
			l-20,204.9c-29.4-52.5-50.4-93.4-62.9-122.6L231.3,9.3h-11.6L99.3,308.5L90.6,216c-3.9-41.7-6-74.8-6-99.1
			c0-54.1,13.6-81.9,40.8-83.5V21.4H9.4v12.1c11.9,2.7,21.4,10.4,28.4,23.1c7,12.6,14.3,35.1,21.7,67.4
			c7.4,32.3,12.9,66.9,16.3,103.6l6.4,68.4c0.2,3.2,0.3,6.8,0.3,10.6c0,12.2-2.4,20.4-7.1,24.6c-4.8,4.2-13.7,6.5-26.6,6.8
			L48.8,350.2z M741.8,361.7h11.6c2.2-7.7,5.6-11.6,10-11.6h224.8c5.9,0,8.8,3.8,8.8,11.6h11.6v-97.8H990
			c-0.5,49.4-26.4,74.2-77.7,74.2h-13.9V74.5c0-26.6,13-40.2,38.9-41V21.4H812.2v12.1c15.4,0.2,25.7,3.2,31,8.9
			c5.4,5.7,8,16.4,8,32.1v263.5h-17.9c-47.9,0-72.6-24.7-74.2-74.2h-17.4L741.8,361.7z M1150.1,363.3h15.2L1256,101
			c6.7-19.6,14-35.6,22-48c7.9-12.4,17.6-18.9,29.1-19.5V21.4h-92.8v12.1h6.3c3.1,0,4.6,2.9,4.6,8.6c0,1.8-0.3,3.7-1.1,5.8
			l-30.9,89.2h-111.8c-12-33.2-18-58-18-74.3c0-8.5,2.8-15.6,8.3-21.1c5.6-5.5,12.9-8.2,22-8.2h13.6V21.4h-115v12.1
			c19.1,1.1,36.6,21.5,52.3,61.4L1150.1,363.3z M1140.9,288.8l-53.2-135.9H1188L1140.9,288.8z M1324,350.2h162.6
			c28.3,0,49-5.4,62.2-16.3c13.2-11,19.8-25.1,19.8-42.6c0-28-13-54.4-39-79.3c-25.9-25-52.7-37.4-80.2-37.4
			c-5.9,0-12.3,0.8-18.8,2.5c-6.5,1.7-13.3,4-20.3,7.2V74.5c0-26.4,13-40.1,38.9-41V21.4H1324v12.1c15.3,0.2,25.7,3.1,30.9,8.8
			c5.3,5.7,8,16.5,8,32.3V297c0,16.8-2.9,27.7-8.7,32.9c-5.9,5.1-15.9,7.8-30.2,8.2V350.2z M1410.2,321.6V218.7
			c11-8.2,21.4-14.4,31.3-18.5c9.8-4.1,19-6.2,27.6-6.2c16.1,0,28.2,5.4,36.3,16.2c8.1,10.9,12.1,27.1,12.1,48.7
			c0,22.4-5.2,41.1-15.6,56.4c-10.3,15.2-25.4,22.8-45.2,22.8C1440.8,338.1,1425.3,332.5,1410.2,321.6z M1575.9,350.2h125.2v-12.1
			c-15.3-0.4-25.7-3.3-30.9-9.1c-5.3-5.7-8-16.3-8-31.9v-88.4h156.8V297c0,16.8-3,27.7-8.8,32.9c-5.9,5.1-15.9,7.8-30.1,8.2v12.1
			h125.2v-12.1c-15.3-0.4-25.7-3.3-30.9-9.1c-5.3-5.7-8-16.3-8-31.9V74.5c0-16.8,3-27.9,8.8-33c5.9-5.2,15.9-7.8,30.1-8V21.4H1780
			v12.1c15,0.2,25.2,3.2,30.8,8.9c5.4,5.7,8.2,16.4,8.2,32.1v118.3h-156.8V74.5c0-26.6,13-40.2,38.9-41V21.4h-125.2v12.1
			c15.2,0.2,25.5,3.2,30.9,8.9c5.3,5.7,8.1,16.4,8.1,32.1V297c0,16.8-3,27.7-8.8,32.9c-5.9,5.1-15.9,7.8-30.1,8.2V350.2z
			 M1930.7,350.2h93.1v-12.1c-6.6-0.2-9.8-2.5-9.8-7.1c0-1.4,0.3-3,1.1-4.7l80.7-159.9c41.5,64.8,62.2,112.2,62.2,142.1
			c0,10.6-3.1,18.2-9.3,22.7c-6.2,4.5-17,6.8-32.3,6.9v12.1h122.6v-12.1c-9.9-0.2-19.7-4.7-29-13.4c-9.5-8.8-20.2-23.6-32.4-44.5
			l-77.9-132.6V74.5c0-26.5,13-40.2,38.9-41V21.4h-125.2v12.1c15.2,0.2,25.5,3.2,30.9,8.9c5.4,5.7,8.1,16.4,8.1,32.1v73.1
			l-64.5,128.8c-9.7,19.7-18.9,34.9-27.6,45.5c-8.8,10.6-18.6,15.9-29.4,16.1L1930.7,350.2z M2278.4,214c-8,7.5-13.9,15.5-18,24.1
			c-4,8.6-6,17.5-6,27c0,24.6,11.3,46.2,34,64.7c22.6,18.5,49.2,27.7,79.6,27.7c15.3,0,35.6-4.4,61-13.2v-80.5H2410
			c-1.4,22.5-8.2,40.8-20.6,55c-12.3,14.2-27.4,21.3-45.2,21.3c-14.6,0-26.6-4.5-36.1-13.4c-9.6-8.9-14.3-20.2-14.3-33.9
			c0-13.1,4.7-25.4,14.3-36.9c9.4-11.4,31.8-29,67.3-52.9c26.9-18.1,45.1-32.6,54.4-43.8c9.2-11.3,13.9-25.2,13.9-41.6
			c0-26.9-12.4-50.9-37.2-71.9c-24.8-21-52.9-31.6-84.3-31.6c-22.5,0-47.8,5.3-75.7,15.8v93.1h18.4c0-26,7.5-47.8,22.7-65.3
			c15.1-17.4,33.1-26.2,53.8-26.2c19,0,34.1,5.5,45.1,16.7c11.1,11.1,16.7,25.3,16.7,42.4c0,14.9-4.6,28-13.7,39.3
			c-9.1,11.1-29.8,27.4-62.2,48.7C2309.7,190.2,2293.3,202,2278.4,214z M2601.4,338.1c-15.3-0.4-25.7-3.3-30.9-8.9
			c-5.3-5.6-8-16.3-8-32.1V74.5c0-26.4,13-40.1,38.9-41V21.4h-125.2v12.1c15.3,0.2,25.7,3.2,30.9,8.9c5.4,5.7,8,16.4,8,32.1V297
			c0,16.8-2.9,27.7-8.7,32.9c-5.9,5.1-15.9,7.8-30.2,8.2v12.1h125.2V338.1z M2632,350.2h125.2v-12.1c-15.3-0.4-25.7-3.3-30.9-8.9
			c-5.4-5.5-8-16.2-8-32.1V193.4l63.3,62c10.2,9.9,19.7,21.3,28.7,34.1c9,12.8,13.5,23.2,13.5,31.3c0,11-8.9,16.7-26.5,17.3v12.1
			h117.6v-12.1c-22.2-2.7-45.9-16.3-71.2-40.9l-82.8-80.5L2850.9,96c30.8-41.6,57.2-62.3,79.3-62.5V21.4h-82.9L2718.3,195V74.5
			c0-26.4,13-40.1,38.9-41V21.4H2632v12.1c15.3,0.2,25.7,3.2,30.9,8.9c5.4,5.7,8,16.4,8,32.1V297c0,16.8-2.9,27.8-8.7,32.9
			c-5.9,5.1-15.9,7.8-30.2,8.2L2632,350.2z M3082.8,363.3h15.2l90.7-262.3c6.7-19.6,14-35.6,22-48c7.9-12.4,17.6-18.9,29.1-19.5
			V21.4h-92.8v12.1h6.3c3.1,0,4.6,2.9,4.6,8.6c0,1.8-0.4,3.7-1.1,5.8l-30.9,89.2h-111.8c-12-33.2-18-58-18-74.3
			c0-8.5,2.8-15.6,8.3-21.1c5.6-5.5,12.9-8.2,22-8.2h13.6V21.4h-115v12.1c19.1,1.1,36.6,21.5,52.4,61.4L3082.8,363.3z M3073.6,288.8
			l-53.2-135.9h100.3L3073.6,288.8z"/>
		<path id="path16" class="st1" d="M48.8,350.2H133L242.9,78.4l62.9,149.1c23.8,56.3,39.4,97.1,47,122.6h91.6v-12.1
			c-14.9-0.4-25.2-2.8-31.1-7.5c-5.9-4.6-8.9-13.2-8.9-25.6c0-1.8,0.1-3.7,0.3-5.9l19.7-205.1c2.4-25.3,6.4-41.6,11.9-48.8
			c5.6-7.2,16.8-11.1,33.8-11.6V21.4H343.7v12.1c12.9,0.4,21.9,2.9,27.3,7.7c5.3,4.8,7.9,14.2,7.9,28.1c0,2.8-0.1,5.7-0.4,8.8
			l-20,204.9c-29.4-52.5-50.4-93.4-62.9-122.6L231.3,9.3h-11.6L99.3,308.5L90.6,216c-3.9-41.7-6-74.8-6-99.1
			c0-54.1,13.6-81.9,40.8-83.5V21.4H9.4v12.1c11.9,2.7,21.4,10.4,28.4,23.1c7,12.6,14.3,35.1,21.7,67.4
			c7.4,32.3,12.9,66.9,16.3,103.6l6.4,68.4c0.2,3.2,0.3,6.8,0.3,10.6c0,12.2-2.4,20.4-7.1,24.6c-4.8,4.2-13.7,6.5-26.6,6.8
			L48.8,350.2z M741.8,361.7h11.6c2.2-7.7,5.6-11.6,10-11.6h224.8c5.9,0,8.8,3.8,8.8,11.6h11.6v-97.8H990
			c-0.5,49.4-26.4,74.2-77.7,74.2h-13.9V74.5c0-26.6,13-40.2,38.9-41V21.4H812.2v12.1c15.4,0.2,25.7,3.2,31,8.9
			c5.4,5.7,8,16.4,8,32.1v263.5h-17.9c-47.9,0-72.6-24.7-74.2-74.2h-17.4L741.8,361.7z M1150.1,363.3h15.2L1256,101
			c6.7-19.6,14-35.6,22-48c7.9-12.4,17.6-18.9,29.1-19.5V21.4h-92.8v12.1h6.3c3.1,0,4.6,2.9,4.6,8.6c0,1.8-0.3,3.7-1.1,5.8
			l-30.9,89.2h-111.8c-12-33.2-18-58-18-74.3c0-8.5,2.8-15.6,8.3-21.1c5.6-5.5,12.9-8.2,22-8.2h13.6V21.4h-115v12.1
			c19.1,1.1,36.6,21.5,52.3,61.4L1150.1,363.3z M1140.9,288.8l-53.2-135.9H1188L1140.9,288.8z M1324,350.2h162.6
			c28.3,0,49-5.4,62.2-16.3c13.2-11,19.8-25.1,19.8-42.6c0-28-13-54.4-39-79.3c-25.9-25-52.7-37.4-80.2-37.4
			c-5.9,0-12.3,0.8-18.8,2.5c-6.5,1.7-13.3,4-20.3,7.2V74.5c0-26.4,13-40.1,38.9-41V21.4H1324v12.1c15.3,0.2,25.7,3.1,30.9,8.8
			c5.3,5.7,8,16.5,8,32.3V297c0,16.8-2.9,27.7-8.7,32.9c-5.9,5.1-15.9,7.8-30.2,8.2V350.2z M1410.2,321.6V218.7
			c11-8.2,21.4-14.4,31.3-18.5c9.8-4.1,19-6.2,27.6-6.2c16.1,0,28.2,5.4,36.3,16.2c8.1,10.9,12.1,27.1,12.1,48.7
			c0,22.4-5.2,41.1-15.6,56.4c-10.3,15.2-25.4,22.8-45.2,22.8C1440.8,338.1,1425.3,332.5,1410.2,321.6z M1575.9,350.2h125.2v-12.1
			c-15.3-0.4-25.7-3.3-30.9-9.1c-5.3-5.7-8-16.3-8-31.9v-88.4h156.8V297c0,16.8-3,27.7-8.8,32.9c-5.9,5.1-15.9,7.8-30.1,8.2v12.1
			h125.2v-12.1c-15.3-0.4-25.7-3.3-30.9-9.1c-5.3-5.7-8-16.3-8-31.9V74.5c0-16.8,3-27.9,8.8-33c5.9-5.2,15.9-7.8,30.1-8V21.4H1780
			v12.1c15,0.2,25.2,3.2,30.8,8.9c5.4,5.7,8.2,16.4,8.2,32.1v118.3h-156.8V74.5c0-26.6,13-40.2,38.9-41V21.4h-125.2v12.1
			c15.2,0.2,25.5,3.2,30.9,8.9c5.3,5.7,8.1,16.4,8.1,32.1V297c0,16.8-3,27.7-8.8,32.9c-5.9,5.1-15.9,7.8-30.1,8.2V350.2z
			 M1930.7,350.2h93.1v-12.1c-6.6-0.2-9.8-2.5-9.8-7.1c0-1.4,0.3-3,1.1-4.7l80.7-159.9c41.5,64.8,62.2,112.2,62.2,142.1
			c0,10.6-3.1,18.2-9.3,22.7c-6.2,4.5-17,6.8-32.3,6.9v12.1h122.6v-12.1c-9.9-0.2-19.7-4.7-29-13.4c-9.5-8.8-20.2-23.6-32.4-44.5
			l-77.9-132.6V74.5c0-26.5,13-40.2,38.9-41V21.4h-125.2v12.1c15.2,0.2,25.5,3.2,30.9,8.9c5.4,5.7,8.1,16.4,8.1,32.1v73.1
			l-64.5,128.8c-9.7,19.7-18.9,34.9-27.6,45.5c-8.8,10.6-18.6,15.9-29.4,16.1L1930.7,350.2z M2278.4,214c-8,7.5-13.9,15.5-18,24.1
			c-4,8.6-6,17.5-6,27c0,24.6,11.3,46.2,34,64.7c22.6,18.5,49.2,27.7,79.6,27.7c15.3,0,35.6-4.4,61-13.2v-80.5H2410
			c-1.4,22.5-8.2,40.8-20.6,55c-12.3,14.2-27.4,21.3-45.2,21.3c-14.6,0-26.6-4.5-36.1-13.4c-9.6-8.9-14.3-20.2-14.3-33.9
			c0-13.1,4.7-25.4,14.3-36.9c9.4-11.4,31.8-29,67.3-52.9c26.9-18.1,45.1-32.6,54.4-43.8c9.2-11.3,13.9-25.2,13.9-41.6
			c0-26.9-12.4-50.9-37.2-71.9c-24.8-21-52.9-31.6-84.3-31.6c-22.5,0-47.8,5.3-75.7,15.8v93.1h18.4c0-26,7.5-47.8,22.7-65.3
			c15.1-17.4,33.1-26.2,53.8-26.2c19,0,34.1,5.5,45.1,16.7c11.1,11.1,16.7,25.3,16.7,42.4c0,14.9-4.6,28-13.7,39.3
			c-9.1,11.1-29.8,27.4-62.2,48.7C2309.7,190.2,2293.3,202,2278.4,214z M2601.4,338.1c-15.3-0.4-25.7-3.3-30.9-8.9
			c-5.3-5.6-8-16.3-8-32.1V74.5c0-26.4,13-40.1,38.9-41V21.4h-125.2v12.1c15.3,0.2,25.7,3.2,30.9,8.9c5.4,5.7,8,16.4,8,32.1V297
			c0,16.8-2.9,27.7-8.7,32.9c-5.9,5.1-15.9,7.8-30.2,8.2v12.1h125.2V338.1z M2632,350.2h125.2v-12.1c-15.3-0.4-25.7-3.3-30.9-8.9
			c-5.4-5.5-8-16.2-8-32.1V193.4l63.3,62c10.2,9.9,19.7,21.3,28.7,34.1c9,12.8,13.5,23.2,13.5,31.3c0,11-8.9,16.7-26.5,17.3v12.1
			h117.6v-12.1c-22.2-2.7-45.9-16.3-71.2-40.9l-82.8-80.5L2850.9,96c30.8-41.6,57.2-62.3,79.3-62.5V21.4h-82.9L2718.3,195V74.5
			c0-26.4,13-40.1,38.9-41V21.4H2632v12.1c15.3,0.2,25.7,3.2,30.9,8.9c5.4,5.7,8,16.4,8,32.1V297c0,16.8-2.9,27.8-8.7,32.9
			c-5.9,5.1-15.9,7.8-30.2,8.2L2632,350.2z M3082.8,363.3h15.2l90.7-262.3c6.7-19.6,14-35.6,22-48c7.9-12.4,17.6-18.9,29.1-19.5
			V21.4h-92.8v12.1h6.3c3.1,0,4.6,2.9,4.6,8.6c0,1.8-0.4,3.7-1.1,5.8l-30.9,89.2h-111.8c-12-33.2-18-58-18-74.3
			c0-8.5,2.8-15.6,8.3-21.1c5.6-5.5,12.9-8.2,22-8.2h13.6V21.4h-115v12.1c19.1,1.1,36.6,21.5,52.4,61.4L3082.8,363.3z M3073.6,288.8
			l-53.2-135.9h100.3L3073.6,288.8z"/>
		<path id="path18" class="st2" d="M2563.3,449.6c-0.5,11.9,0.9,21,4.1,27.3c3.2,6.3,9.3,11.6,18.1,15.9c10.1,4.9,20.5,5.4,31,1.6
			c10.6-3.9,18.6-11.7,24.3-23.3c5.6-11.5,6.9-22.7,3.7-33.4c-3.2-10.8-8.9-18.2-17.3-22.3c-6.3-3-13.2-3.5-20.7-1.6
			c-5,1.3-13.1,5.7-24.3,13.1c-0.2-9.8-1.9-17.5-5-23.3c-3.1-5.7-8.1-10.3-14.9-13.6c-9.1-4.4-18.3-4.9-27.7-1.5
			c-9.4,3.4-16.6,10.2-21.6,20.5c-5.1,10.4-6.2,20.2-3.5,29.4c2.7,9.2,7.9,15.6,15.7,19.4c5.4,2.6,10.9,3.6,16.4,2.8
			C2547,459.7,2554.3,456.1,2563.3,449.6L2563.3,449.6z M2581.7,434.8c9.5-7.5,17.4-11.8,23.6-12.9c6.3-1.1,12.2-0.3,17.9,2.5
			c7.8,3.8,12.9,9.7,15.3,17.8c2.5,8.1,1.4,16.9-3.1,26.2c-4.5,9.2-11,15.6-19.4,18.9c-8.4,3.4-16,3.4-22.8,0.1
			c-4.4-2.1-7.6-5.1-9.8-8.8c-2.2-3.8-3.4-8.8-3.7-14.9C2579.7,460.1,2580.3,450.5,2581.7,434.8z M2564.1,441
			c-6.4,5.4-12.5,8.8-18,10.1c-5.6,1.4-11.2,0.6-17-2.2c-6.7-3.2-11.1-8.3-13.3-15.2c-2.2-6.9-1.4-14.3,2.4-22.1
			c4.1-8.4,9.6-14,16.5-16.8c6.9-2.8,13.1-2.9,18.7-0.2c6,2.9,10,8.2,11.9,15.8C2566.5,415.3,2566.1,425.5,2564.1,441"/>
		<path id="path20" class="st3" d="M498.1,349.9h212l5-117.3h-18.6c-1.8,21.7-4,38-6.6,48.8c-2.6,10.8-6.4,19.6-11.6,26.3
			c-6.2,7.9-13.5,13.4-22.1,16.3c-8.5,2.9-21.5,4.4-39.1,4.4h-58.4L635,201.9l-92-138.8h80.8c19.9,0,33.8,1.4,41.8,4.1
			c8,2.7,15.3,8.6,22.1,17.4c4.6,6.1,8.3,14.3,11,24.5c2.7,10.2,4.1,22.5,4.1,36.9h18.6l-6.2-124.6H491.9l107.2,160.8L498.1,349.9"
			/>
	</g>
</g>
</svg>
