<?xml version="1.0" encoding="utf-8"?>
<!-- Generator: Adobe Illustrator 25.4.1, SVG Export Plug-In . SVG Version: 6.00 Build 0)  -->
<svg version="1.1"
	 id="svg2" sodipodi:docname="logo Metaphysika (2).eps" xmlns:cc="http://creativecommons.org/ns#" xmlns:dc="http://purl.org/dc/elements/1.1/" xmlns:inkscape="http://www.inkscape.org/namespaces/inkscape" xmlns:rdf="http://www.w3.org/1999/02/22-rdf-syntax-ns#" xmlns:sodipodi="http://sodipodi.sourceforge.net/DTD/sodipodi-0.dtd" xmlns:svg="http://www.w3.org/2000/svg"
	 xmlns="http://www.w3.org/2000/svg" xmlns:xlink="http://www.w3.org/1999/xlink" x="0px" y="0px" viewBox="0 0 632.7 574.4"
	 style="enable-background:new 0 0 632.7 574.4;" xml:space="preserve">
<style type="text/css">
	.st0{stroke:#FFFFFF;stroke-width:3.840000e-02;stroke-miterlimit:10;}
</style>
<sodipodi:namedview  bordercolor="#666666" borderopacity="1" gridtolerance="10" guidetolerance="10" id="namedview4" inkscape:pageopacity="0" inkscape:pageshadow="2" inkscape:window-height="480" inkscape:window-width="640" objecttolerance="10" pagecolor="#ffffff">
	</sodipodi:namedview>
<g id="g10" transform="matrix(1.3333333,0,0,-1.3333333,0,66.666667)" inkscape:groupmode="layer" inkscape:label="ink_ext_XXXXXX">
	<g id="g12" transform="scale(0.1)">
		<path id="path14" d="M424.2-30h853.3l1113.7-2754.4l637.4,1510.9c241.2,570.5,399.3,984,476.3,1242.4h928.3v-122.6
			c-151-4.1-255.4-28.4-315.2-76c-59.8-46.6-90.2-133.8-90.2-259.4c0-18.2,1-37.5,3-59.8l199.6-2078.4
			c24.3-256.4,64.9-421.6,120.6-494.5c56.7-73,170.2-112.5,342.5-117.6V-3362H3412.7v122.6c130.7,4.1,221.9,29.4,276.7,78
			c53.7,48.6,80.1,143.9,80.1,284.8c0,28.4-1,57.8-4.1,89.2L3562.7-711c-297.9-532-510.7-946.5-637.4-1242.4l-651.6-1531.2h-117.6
			L936-452.6L847.8-1390c-39.5-422.6-60.8-758-60.8-1004.3c0-548.2,137.8-830,413.5-846.2V-3362H25v122.6
			c120.6,27.4,216.9,105.4,287.8,234.1c70.9,127.7,144.9,355.7,219.9,683s130.7,678,165.2,1049.9l64.9,693.2c2,32.4,3,68.9,3,107.4
			c0,123.6-24.3,206.7-72,249.3C645.1-180,555-156.7,424.2-153.6L424.2-30z"/>
		<path id="path16" class="st0" d="M424.2-30h853.3l1113.7-2754.4l637.4,1510.9c241.2,570.5,399.3,984,476.3,1242.4h928.3v-122.6
			c-151-4.1-255.4-28.4-315.2-76c-59.8-46.6-90.2-133.8-90.2-259.4c0-18.2,1-37.5,3-59.8l199.6-2078.4
			c24.3-256.4,64.9-421.6,120.6-494.5c56.7-73,170.2-112.5,342.5-117.6V-3362H3412.7v122.6c130.7,4.1,221.9,29.4,276.7,78
			c53.7,48.6,80.1,143.9,80.1,284.8c0,28.4-1,57.8-4.1,89.2L3562.7-711c-297.9-532-510.7-946.5-637.4-1242.4l-651.6-1531.2h-117.6
			L936-452.6L847.8-1390c-39.5-422.6-60.8-758-60.8-1004.3c0-548.2,137.8-830,413.5-846.2V-3362H25v122.6
			c120.6,27.4,216.9,105.4,287.8,234.1c70.9,127.7,144.9,355.7,219.9,683s130.7,678,165.2,1049.9l64.9,693.2c2,32.4,3,68.9,3,107.4
			c0,123.6-24.3,206.7-72,249.3C645.1-180,555-156.7,424.2-153.6L424.2-30z"/>
	</g>
</g>
</svg>
